# xmcd CD database file
#
# Track frame offsets:
#	150
#	40301
#	71572
#
# Disc length: 1635 seconds
#
# Revision: 5
# Processed by: cddbd v1.5.2PL0 Copyright (c) Steve Scherf et al.
# Submitted via: CDex 1.51
#
DISCID=23066103
DTITLE=Pascal Dusapin - À Quia - Concerto pour piano et orchestre  (Christoph Eschenbach, Orch. de Paris ~ Ian Pace, piano)
DYEAR=2002
DGENRE=Contemporain
TTITLE0=À Quia - Concerto pour piano et orchestre ~ I
TTITLE1=À Quia - Concerto pour piano et orchestre ~ II
TTITLE2=À Quia - Concerto pour piano et orchestre ~ III
EXTD=YEAR: 2002
EXTT0=
EXTT1=
EXTT2=
PLAYORDER=
